<?xml version="1.0" encoding="UTF-8" standalone="no"?>
<!-- Created with Inkscape (http://www.inkscape.org/) -->

<svg
   width="30pc"
   height="30pc"
   viewBox="0 0 127 127"
   version="1.1"
   id="svg5"
   inkscape:version="1.2.2 (732a01da63, 2022-12-09)"
   sodipodi:docname="logo.svg"
   xmlns:inkscape="http://www.inkscape.org/namespaces/inkscape"
   xmlns:sodipodi="http://sodipodi.sourceforge.net/DTD/sodipodi-0.dtd"
   xmlns="http://www.w3.org/2000/svg"
   xmlns:svg="http://www.w3.org/2000/svg">
  <sodipodi:namedview
     id="namedview7"
     pagecolor="#ffffff"
     bordercolor="#666666"
     borderopacity="1.0"
     inkscape:pageshadow="2"
     inkscape:pageopacity="0"
     inkscape:pagecheckerboard="0"
     inkscape:document-units="mm"
     showgrid="false"
     inkscape:zoom="2"
     inkscape:cx="145.75"
     inkscape:cy="253.25"
     inkscape:window-width="3200"
     inkscape:window-height="1721"
     inkscape:window-x="-9"
     inkscape:window-y="-9"
     inkscape:window-maximized="1"
     inkscape:current-layer="layer1"
     inkscape:showpageshadow="2"
     inkscape:deskcolor="#d1d1d1" />
  <defs
     id="defs2" />
  <g
     inkscape:label="Слой 1"
     inkscape:groupmode="layer"
     id="layer1">
    <path
       style="fill:#382fe2;fill-opacity:1;stroke-width:1"
       id="path966"
       sodipodi:type="arc"
       sodipodi:cx="87.837143"
       sodipodi:cy="115.96244"
       sodipodi:rx="7.9982486"
       sodipodi:ry="7.9982266"
       sodipodi:start="0"
       sodipodi:end="6.2829235"
       sodipodi:arc-type="slice"
       d="m 95.835392,115.96244 a 7.9982486,7.9982266 0 0 1 -7.997726,7.99823 7.9982486,7.9982266 0 0 1 -7.998772,-7.99718 7.9982486,7.9982266 0 0 1 7.996678,-7.99928 7.9982486,7.9982266 0 0 1 7.999819,7.99614 l -7.998248,0.002 z" />
    <path
       style="fill:#382fe2;fill-opacity:1;stroke-width:1"
       id="path966-2"
       sodipodi:type="arc"
       sodipodi:cx="69.055336"
       sodipodi:cy="8.4261341"
       sodipodi:rx="7.9982486"
       sodipodi:ry="7.9982266"
       sodipodi:start="0"
       sodipodi:end="6.2829235"
       sodipodi:arc-type="slice"
       d="M 77.053585,8.4261341 A 7.9982486,7.9982266 0 0 1 69.055859,16.424361 7.9982486,7.9982266 0 0 1 61.057087,8.4271811 7.9982486,7.9982266 0 0 1 69.053765,0.42790762 7.9982486,7.9982266 0 0 1 77.053584,8.4240401 l -7.998248,0.00209 z" />
    <path
       style="fill:#382fe2;fill-opacity:1;stroke-width:1"
       id="path966-4"
       sodipodi:type="arc"
       sodipodi:cx="32.850151"
       sodipodi:cy="40.993107"
       sodipodi:rx="7.9982486"
       sodipodi:ry="7.9982266"
       sodipodi:start="0"
       sodipodi:end="6.2829235"
       sodipodi:arc-type="slice"
       d="m 40.8484,40.993107 a 7.9982486,7.9982266 0 0 1 -7.997725,7.998226 7.9982486,7.9982266 0 0 1 -7.998772,-7.997179 7.9982486,7.9982266 0 0 1 7.996678,-7.999274 7.9982486,7.9982266 0 0 1 7.999818,7.996133 l -7.998248,0.0021 z" />
    <path
       style="fill:#382fe2;fill-opacity:1;stroke-width:1"
       id="path966-5"
       sodipodi:type="arc"
       sodipodi:cx="115.22921"
       sodipodi:cy="59.901859"
       sodipodi:rx="7.9982486"
       sodipodi:ry="7.9982266"
       sodipodi:start="0"
       sodipodi:end="6.2829235"
       sodipodi:arc-type="slice"
       d="m 123.22746,59.901859 a 7.9982486,7.9982266 0 0 1 -7.99773,7.998227 7.9982486,7.9982266 0 0 1 -7.99877,-7.99718 7.9982486,7.9982266 0 0 1 7.99668,-7.999273 7.9982486,7.9982266 0 0 1 7.99982,7.996132 l -7.99825,0.0021 z" />
    <g
       id="g2931"
       transform="matrix(1.3683759,0,0,1.4086652,20.126541,13.497779)">
      <rect
         style="fill:#d6d6d6;fill-opacity:1;stroke:#a3a3a3;stroke-width:1.77793;stroke-dasharray:none;stroke-opacity:1"
         id="rect1782"
         width="37.647839"
         height="36.431763"
         x="19.552645"
         y="13.144856" />
      <rect
         style="fill:#a3a3a3;fill-opacity:1;stroke:none;stroke-width:0.312366;stroke-dasharray:none;stroke-opacity:1"
         id="rect1782-3"
         width="12.304775"
         height="3.4406717"
         x="24.129189"
         y="24.164318" />
      <g
         id="g2922">
        <ellipse
           style="fill:#a3a3a3;fill-opacity:1;stroke:none;stroke-width:1.53845;stroke-dasharray:none;stroke-opacity:1"
           id="path2583"
           cx="45.670429"
           cy="25.666105"
           rx="6.7283401"
           ry="6.533668" />
        <ellipse
           style="fill:#d6d6d6;fill-opacity:1;stroke:none;stroke-width:0.647795;stroke-dasharray:none;stroke-opacity:1"
           id="path2583-2"
           cx="45.670429"
           cy="25.666105"
           rx="2.8331103"
           ry="2.7511394" />
        <ellipse
           style="fill:#ffffff;fill-opacity:1;stroke:none;stroke-width:0.17894;stroke-dasharray:none;stroke-opacity:1"
           id="path2583-2-5"
           cx="46.302086"
           cy="24.930159"
           rx="0.78258955"
           ry="0.7599467" />
      </g>
      <path
         style="fill:none;fill-opacity:1;stroke:#a3a3a3;stroke-width:2.965;stroke-linecap:butt;stroke-linejoin:miter;stroke-dasharray:none;stroke-opacity:1"
         d="m 25.435464,36.299903 c 6.545466,10.99704 18.650991,8.979207 23.198995,5.612659"
         id="path2639"
         sodipodi:nodetypes="cc" />
    </g>
    <rect
       style="fill:#a3a3a3;fill-opacity:1;stroke:none;stroke-width:0.703464;stroke-dasharray:none;stroke-opacity:1"
       id="rect1782-4"
       width="14.681334"
       height="14.625411"
       x="17.400906"
       y="99.229958" />
    <rect
       style="fill:#a3a3a3;fill-opacity:1;stroke:none;stroke-width:0.703464;stroke-dasharray:none;stroke-opacity:1"
       id="rect1782-4-0"
       width="14.681334"
       height="14.625411"
       x="19.117666"
       y="9.88521" />
    <rect
       style="fill:#a3a3a3;fill-opacity:1;stroke:none;stroke-width:0.703464;stroke-dasharray:none;stroke-opacity:1"
       id="rect1782-4-6"
       width="14.681334"
       height="14.625411"
       x="101.93224"
       y="10.149796" />
  </g>
</svg>
