<?xml version="1.0" standalone="no"?>
<!DOCTYPE svg PUBLIC "-//W3C//DTD SVG 20010904//EN"
 "http://www.w3.org/TR/2001/REC-SVG-20010904/DTD/svg10.dtd">
<svg version="1.0" xmlns="http://www.w3.org/2000/svg"
 width="700.000000pt" height="700.000000pt" viewBox="0 0 700.000000 700.000000"
 preserveAspectRatio="xMidYMid meet">
<metadata>
Created by potrace 1.14, written by Peter Selinger 2001-2017
</metadata>
<g transform="translate(0.000000,700.000000) scale(0.100000,-0.100000)"
fill="#000000" stroke="none">
<path d="M3730 6968 c-152 -23 -290 -143 -340 -292 -53 -160 -12 -333 107
-451 238 -236 628 -135 733 189 18 56 19 161 3 225 -60 229 -269 366 -503 329z"/>
<path d="M1058 6455 c0 0 -2 -181 -3 -402 l-1 -403 402 0 c313 0 403 3 406 13
7 23 1 777 -6 785 -5 5 -669 11 -798 7z"/>
<path d="M5619 6275 c0 -91 0 -208 0 -260 0 -52 0 -159 0 -238 l1 -143 403 1
402 0 1 403 2 402 -404 0 -404 0 -1 -165z"/>
<path d="M2523 5303 c-10 -4 -9 -2950 0 -2959 4 -4 672 -7 1484 -7 l1478 0 3
1482 c1 814 -1 1482 -5 1482 -15 3 -2953 4 -2960 2z"/>
<path d="M1728 5175 c-2 -2 -15 -6 -30 -9 -51 -9 -143 -62 -195 -112 -36 -35
-65 -77 -89 -129 -32 -66 -37 -88 -40 -164 -5 -135 37 -243 131 -334 77 -76
157 -113 265 -123 131 -12 252 31 349 126 233 230 137 633 -176 730 -50 15
-204 26 -215 15z"/>
<path d="M6260 4128 c-68 -12 -163 -63 -217 -117 -90 -89 -134 -201 -129 -328
7 -196 131 -354 320 -408 77 -22 199 -16 278 14 196 76 318 306 267 506 -5 22
-11 45 -12 50 -10 39 -60 117 -103 160 -109 110 -247 152 -404 123z"/>
<path d="M960 1523 c-1 -11 -1 -686 0 -748 l0 -50 403 0 402 0 3 403 2 402
-405 0 c-223 0 -405 -3 -405 -7z"/>
<path d="M4718 1030 c-197 -60 -327 -243 -313 -440 7 -109 28 -169 89 -249 59
-78 119 -119 226 -155 66 -22 209 -16 283 13 202 79 318 307 263 520 -61 238
-315 382 -548 311z"/>
</g>
</svg>
